# xmcd CD database file
#
# Track frame offsets:
#	150
#	15275
#	35680
#	46620
#	63727
#	93585
#	115742
#	134742
#	154372
#	177072
#
# Disc length: 2539 seconds
#
# Revision: 8
# Processed by: cddbd v1.5.1PL2 Copyright (c) Steve Scherf et al.
# Submitted via: CDex 1.51
#
DISCID=8109e90a
DTITLE=????? - ??????????
DYEAR=2003
DGENRE=Blues
TTITLE0=????????
TTITLE1=??
TTITLE2=????????
TTITLE3=????????
TTITLE4=??????
TTITLE5=???
TTITLE6=????????? (Album Version)
TTITLE7=??????? ??? (Album Mix)
TTITLE8=??????
TTITLE9=???
EXTD=YEAR: 2003
EXTT0=
EXTT1=
EXTT2=
EXTT3=
EXTT4=
EXTT5=
EXTT6=
EXTT7=
EXTT8=
EXTT9=
PLAYORDER=
